<svg width="201" height="200" viewBox="0 0 201 200" fill="none" xmlns="http://www.w3.org/2000/svg">
<g clip-path="url(#clip0_44_37)">
<path d="M115.375 57C113 57.2139 110.75 58.6039 109.5 60.6355C107.875 63.4157 95.875 84.0527 93.5 86.0843C91.125 88.116 88 89.0783 84.5 89.0783V131.849H128.25C130.875 131.849 133.125 130.459 134.125 128.535C134.125 128.535 147 97.4187 147 94.4247C147 91.4307 144.25 89.0783 140.75 89.0783H122C118.5 89.0783 115.75 86.4051 115.75 83.7319C115.75 81.0587 120.625 66.8373 121.625 64.0572C122.13 62.7238 122.008 61.2745 121.284 60.0168C120.561 58.7591 119.293 57.7921 117.75 57.3208C116.875 57.1069 116.25 56.8931 115.375 57ZM59.5 89.0783V131.849H72V89.0783H59.5Z" fill="white"/>
</g>
<circle cx="100.5" cy="100" r="99" stroke="white" stroke-width="2" stroke-dasharray="5 5"/>
<defs>
<clipPath id="clip0_44_37">
<rect width="100" height="85.5422" fill="white" transform="translate(59.5 57)"/>
</clipPath>
</defs>
</svg>
