<svg width="201" height="200" viewBox="0 0 201 200" fill="none" xmlns="http://www.w3.org/2000/svg">
<g clip-path="url(#clip0_44_38)">
<path d="M149.833 76.9753L121.003 58L100.833 74.9724L129.903 93.0595L149.833 76.9753ZM80.6638 58L51.8334 76.9691L71.7703 93.0595L100.833 74.9724L80.6638 58ZM100.833 111.153L80.6638 128.125L51.8334 109.15L71.7642 93.0595L100.833 111.153L129.897 93.0595L149.833 109.15L121.003 128.125L100.833 111.153Z" fill="white"/>
<path d="M122.461 134.495C121.912 134.861 121.258 135.037 120.6 134.999C119.941 134.96 119.313 134.708 118.81 134.281L100.833 119.152L82.8565 134.281C82.3506 134.704 81.7221 134.953 81.0636 134.992C80.4052 135.03 79.7518 134.856 79.1999 134.495L70.2084 128.578V137.625L100.895 156L131.458 137.625V128.572L122.461 134.495Z" fill="white"/>
</g>
<circle cx="100.833" cy="100" r="99" stroke="white" stroke-width="2" stroke-dasharray="5 5"/>
<defs>
<clipPath id="clip0_44_38">
<rect width="98" height="98" fill="white" transform="translate(51.8334 58)"/>
</clipPath>
</defs>
</svg>
