<svg width="201" height="200" viewBox="0 0 201 200" fill="none" xmlns="http://www.w3.org/2000/svg">
<path d="M97.6666 94.5H107.667C108.33 94.5 108.966 94.0611 109.434 93.2797C109.903 92.4982 110.167 91.4384 110.167 90.3334C110.167 89.2283 109.903 88.1685 109.434 87.3871C108.966 86.6057 108.33 86.1667 107.667 86.1667H102.667V82C102.667 80.895 102.403 79.8352 101.934 79.0538C101.466 78.2724 100.83 77.8334 100.167 77.8334C99.5036 77.8334 98.8677 78.2724 98.3989 79.0538C97.93 79.8352 97.6666 80.895 97.6666 82V86.1667C95.6775 86.1667 93.7698 87.4837 92.3633 89.8279C90.9568 92.1721 90.1666 95.3515 90.1666 98.6667C90.1666 101.982 90.9568 105.161 92.3633 107.506C93.7698 109.85 95.6775 111.167 97.6666 111.167H102.667C103.33 111.167 103.966 111.606 104.434 112.387C104.903 113.168 105.167 114.228 105.167 115.333C105.167 116.438 104.903 117.498 104.434 118.28C103.966 119.061 103.33 119.5 102.667 119.5H92.6666C92.0036 119.5 91.3677 119.939 90.8989 120.72C90.43 121.502 90.1666 122.562 90.1666 123.667C90.1666 124.772 90.43 125.832 90.8989 126.613C91.3677 127.394 92.0036 127.833 92.6666 127.833H97.6666V132C97.6666 133.105 97.93 134.165 98.3989 134.946C98.8677 135.728 99.5036 136.167 100.167 136.167C100.83 136.167 101.466 135.728 101.934 134.946C102.403 134.165 102.667 133.105 102.667 132V127.833C104.656 127.833 106.563 126.516 107.97 124.172C109.376 121.828 110.167 118.649 110.167 115.333C110.167 112.018 109.376 108.839 107.97 106.495C106.563 104.15 104.656 102.833 102.667 102.833H97.6666C97.0036 102.833 96.3677 102.394 95.8989 101.613C95.43 100.832 95.1666 99.7718 95.1666 98.6667C95.1666 97.5616 95.43 96.5018 95.8989 95.7204C96.3677 94.939 97.0036 94.5 97.6666 94.5ZM117.667 65.3334H82.6666C80.6775 65.3334 78.7698 66.6503 77.3633 68.9945C75.9568 71.3387 75.1666 74.5182 75.1666 77.8334V136.167C75.1666 139.482 75.9568 142.661 77.3633 145.006C78.7698 147.35 80.6775 148.667 82.6666 148.667H117.667C119.656 148.667 121.563 147.35 122.97 145.006C124.376 142.661 125.167 139.482 125.167 136.167V77.8334C125.167 74.5182 124.376 71.3387 122.97 68.9945C121.563 66.6503 119.656 65.3334 117.667 65.3334ZM120.167 136.167C120.167 137.272 119.903 138.332 119.434 139.113C118.966 139.894 118.33 140.333 117.667 140.333H82.6666C82.0036 140.333 81.3677 139.894 80.8989 139.113C80.43 138.332 80.1666 137.272 80.1666 136.167V77.8334C80.1666 76.7283 80.43 75.6685 80.8989 74.8871C81.3677 74.1057 82.0036 73.6667 82.6666 73.6667H117.667C118.33 73.6667 118.966 74.1057 119.434 74.8871C119.903 75.6685 120.167 76.7283 120.167 77.8334V136.167Z" fill="white"/>
<circle cx="100.167" cy="100" r="99" stroke="white" stroke-width="2" stroke-dasharray="5 5"/>
</svg>
