<svg width="19" height="20" viewBox="0 0 19 20" fill="none" xmlns="http://www.w3.org/2000/svg">
<path d="M15.2546 10.7797C15.0928 10.7797 14.9237 10.7239 14.7619 10.684C14.4344 10.6058 14.1124 10.5019 13.7987 10.3732C13.4576 10.2387 13.0826 10.2457 12.746 10.3928C12.4093 10.5399 12.1348 10.8168 11.9752 11.1702L11.8134 11.5288C11.0972 11.097 10.4391 10.5607 9.85749 9.93487C9.28011 9.30449 8.78529 8.59119 8.38689 7.81495L8.69572 7.5918C9.02172 7.41879 9.27718 7.12121 9.41292 6.75633C9.54867 6.39145 9.55511 5.98505 9.43102 5.61533C9.31427 5.27456 9.21847 4.92579 9.14425 4.57131C9.10748 4.39597 9.07807 4.21267 9.05601 4.02937C8.96672 3.468 8.69544 2.95964 8.29102 2.59582C7.88661 2.23201 7.37563 2.03665 6.85011 2.04493H4.64421C4.32732 2.04171 4.01351 2.11252 3.72414 2.25256C3.43477 2.3926 3.17664 2.59858 2.96731 2.85646C2.75799 3.11435 2.60238 3.41809 2.5111 3.74702C2.41981 4.07594 2.39499 4.42232 2.43831 4.76258C2.83004 8.10136 4.23688 11.2035 6.43662 13.5791C8.63636 15.9547 11.5036 17.4682 14.5855 17.8806H14.8649C15.4071 17.8815 15.9306 17.6658 16.3355 17.2749C16.5681 17.0494 16.7539 16.773 16.8807 16.4639C17.0074 16.1547 17.0722 15.82 17.0708 15.4817V13.0908C17.0618 12.5373 16.8758 12.0042 16.5446 11.5827C16.2133 11.1612 15.7574 10.8774 15.2546 10.7797ZM15.6222 15.5614C15.6221 15.6746 15.5997 15.7864 15.5566 15.8895C15.5135 15.9925 15.4507 16.0845 15.3722 16.1592C15.2901 16.236 15.194 16.2935 15.0902 16.3278C14.9864 16.3621 14.8771 16.3725 14.7693 16.3584C12.0155 15.9757 9.45766 14.6102 7.49917 12.4774C5.54069 10.3446 4.29304 7.56577 3.95303 4.57927C3.94133 4.46253 3.95159 4.34443 3.98318 4.23211C4.01478 4.11979 4.06705 4.01557 4.13686 3.92576C4.20576 3.84075 4.29058 3.77262 4.38567 3.7259C4.48075 3.67918 4.58393 3.65494 4.68833 3.6548H6.89423C7.06522 3.65067 7.23219 3.71129 7.3664 3.8262C7.50061 3.94112 7.59366 4.10314 7.62953 4.2844C7.65894 4.50224 7.69571 4.71742 7.73983 4.92994C7.82477 5.35005 7.93781 5.76291 8.07806 6.16523L7.04864 6.68326C6.96063 6.72703 6.88145 6.78921 6.81567 6.86624C6.74989 6.94326 6.69879 7.03362 6.66531 7.1321C6.63183 7.23059 6.61663 7.33528 6.62059 7.44015C6.62454 7.54503 6.64757 7.64802 6.68835 7.74322C7.74659 10.2001 9.5687 12.175 11.8354 13.322C12.0145 13.4017 12.2153 13.4017 12.3943 13.322C12.486 13.2864 12.5702 13.2315 12.6422 13.1603C12.7141 13.0892 12.7723 13.0033 12.8134 12.9075L13.2693 11.7918C13.6494 11.9391 14.0374 12.0616 14.4311 12.1584C14.6271 12.2062 14.8257 12.2461 15.0266 12.2779C15.1939 12.3168 15.3434 12.4177 15.4494 12.5631C15.5554 12.7086 15.6113 12.8896 15.6075 13.0749L15.6222 15.5614Z" fill="white"/>
</svg>
