<svg width="60" height="100" viewBox="0 0 60 100" fill="none" xmlns="http://www.w3.org/2000/svg">
<path d="M27.5 37.5H37.5C38.163 37.5 38.7989 37.061 39.2678 36.2796C39.7366 35.4982 40 34.4384 40 33.3333C40 32.2283 39.7366 31.1685 39.2678 30.3871C38.7989 29.6057 38.163 29.1667 37.5 29.1667H32.5V25C32.5 23.8949 32.2366 22.8351 31.7678 22.0537C31.2989 21.2723 30.663 20.8333 30 20.8333C29.337 20.8333 28.7011 21.2723 28.2322 22.0537C27.7634 22.8351 27.5 23.8949 27.5 25V29.1667C25.5109 29.1667 23.6032 30.4836 22.1967 32.8278C20.7902 35.172 20 38.3515 20 41.6667C20 44.9819 20.7902 48.1613 22.1967 50.5055C23.6032 52.8497 25.5109 54.1667 27.5 54.1667H32.5C33.163 54.1667 33.7989 54.6057 34.2678 55.3871C34.7366 56.1685 35 57.2283 35 58.3333C35 59.4384 34.7366 60.4982 34.2678 61.2796C33.7989 62.061 33.163 62.5 32.5 62.5H22.5C21.837 62.5 21.2011 62.939 20.7322 63.7204C20.2634 64.5018 20 65.5616 20 66.6667C20 67.7717 20.2634 68.8315 20.7322 69.6129C21.2011 70.3943 21.837 70.8333 22.5 70.8333H27.5V75C27.5 76.1051 27.7634 77.1649 28.2322 77.9463C28.7011 78.7277 29.337 79.1667 30 79.1667C30.663 79.1667 31.2989 78.7277 31.7678 77.9463C32.2366 77.1649 32.5 76.1051 32.5 75V70.8333C34.4891 70.8333 36.3968 69.5164 37.8033 67.1722C39.2098 64.828 40 61.6485 40 58.3333C40 55.0181 39.2098 51.8387 37.8033 49.4945C36.3968 47.1503 34.4891 45.8333 32.5 45.8333H27.5C26.837 45.8333 26.2011 45.3943 25.7322 44.6129C25.2634 43.8315 25 42.7717 25 41.6667C25 40.5616 25.2634 39.5018 25.7322 38.7204C26.2011 37.939 26.837 37.5 27.5 37.5ZM47.5 8.33334H12.5C10.5109 8.33334 8.60322 9.6503 7.1967 11.9945C5.79018 14.3387 5 17.5181 5 20.8333V79.1667C5 82.4819 5.79018 85.6613 7.1967 88.0055C8.60322 90.3497 10.5109 91.6667 12.5 91.6667H47.5C49.4891 91.6667 51.3968 90.3497 52.8033 88.0055C54.2098 85.6613 55 82.4819 55 79.1667V20.8333C55 17.5181 54.2098 14.3387 52.8033 11.9945C51.3968 9.6503 49.4891 8.33334 47.5 8.33334ZM50 79.1667C50 80.2717 49.7366 81.3315 49.2678 82.1129C48.7989 82.8943 48.163 83.3333 47.5 83.3333H12.5C11.837 83.3333 11.2011 82.8943 10.7322 82.1129C10.2634 81.3315 10 80.2717 10 79.1667V20.8333C10 19.7283 10.2634 18.6685 10.7322 17.8871C11.2011 17.1057 11.837 16.6667 12.5 16.6667H47.5C48.163 16.6667 48.7989 17.1057 49.2678 17.8871C49.7366 18.6685 50 19.7283 50 20.8333V79.1667Z" fill="white"/>
</svg>
