<svg width="98" height="98" viewBox="0 0 98 98" fill="none" xmlns="http://www.w3.org/2000/svg">
<path d="M98 18.9753L69.1696 0L49 16.9724L78.0693 35.0595L98 18.9753ZM28.8304 0L0 18.9691L19.9369 35.0595L49 16.9724L28.8304 0ZM49 53.1528L28.8304 70.1251L0 51.1499L19.9307 35.0595L49 53.1528L78.0631 35.0595L98 51.1499L69.1696 70.1251L49 53.1528Z" fill="white"/>
<path d="M70.6274 76.4951C70.0781 76.8606 69.4249 77.0374 68.7663 76.9987C68.1077 76.96 67.4796 76.708 66.9769 76.2808L49 61.152L31.0231 76.2808C30.5172 76.704 29.8887 76.9533 29.2302 76.9919C28.5718 77.0305 27.9184 76.8563 27.3665 76.4951L18.375 70.5784V79.625L49.0613 98L79.625 79.625V70.5723L70.6274 76.4951Z" fill="white"/>
</svg>
