<svg width="70" height="70" viewBox="0 0 70 70" fill="none" xmlns="http://www.w3.org/2000/svg">
<path d="M58.0959 39.0869C58.5095 38.9541 58.7898 38.5693 58.7898 38.1348V31.8945C58.7898 31.46 58.509 31.0752 58.0955 30.9424L52.2092 29.0547C51.9485 28.3301 51.6814 27.6846 51.4011 27.1006L54.2302 21.5811C54.428 21.1953 54.3542 20.7256 54.0481 20.4189L49.6379 15.999C49.3313 15.6904 48.8621 15.6182 48.4758 15.8145L42.9553 18.6299C42.3347 18.3203 41.6726 18.0439 40.9768 17.8037L39.0925 11.9102C38.9597 11.4961 38.575 11.2148 38.1399 11.2148H31.9001C31.4666 11.2148 31.0823 11.4941 30.9485 11.9072L29.0437 17.7979C28.447 18.0049 27.7605 18.2695 27.0642 18.6172L21.5774 15.7949C21.1897 15.5967 20.719 15.6709 20.4119 15.9785L15.9919 20.4092C15.6863 20.7158 15.6125 21.1836 15.8093 21.5693L18.6067 27.0537C18.2922 27.6934 18.0198 28.3555 17.7927 29.0312L11.9231 30.9229C11.511 31.0557 11.2312 31.4385 11.2297 31.8721L11.2102 38.1123C11.2087 38.5469 11.488 38.9316 11.9011 39.0664L17.7942 40.9805C18.0188 41.6133 18.2859 42.251 18.6121 42.9346L15.7996 48.4395C15.6028 48.8252 15.676 49.293 15.9817 49.5996L20.3816 54.0195C20.6877 54.3271 21.1575 54.4053 21.5437 54.2051L27.0613 51.3955C27.7112 51.7139 28.3567 51.9844 29.0154 52.2139L30.9294 58.0947C31.0632 58.5068 31.447 58.7852 31.8801 58.7852H38.1199C38.553 58.7852 38.9368 58.5068 39.0706 58.0947L40.9866 52.21C41.678 51.9648 42.322 51.6992 42.9348 51.4053L48.4456 54.2158C48.8333 54.4121 49.2996 54.3379 49.6067 54.0332L54.0164 49.6328C54.3225 49.3271 54.3977 48.8584 54.2014 48.4727L51.3943 42.9404C51.6882 42.3477 51.9568 41.7002 52.2073 40.9814L58.0959 39.0869ZM49.3782 43.3867L52.0896 48.7295L48.7078 52.1045L43.3948 49.3945C43.1067 49.2461 42.7673 49.248 42.4812 49.3965C41.6887 49.8066 40.8367 50.1592 39.8772 50.4746C39.575 50.5742 39.3376 50.8125 39.2395 51.1152L37.3938 56.7852H32.6062L30.7605 51.1152C30.6609 50.8086 30.4187 50.5684 30.1111 50.4717C29.2346 50.1943 28.3879 49.8398 27.5227 49.3877C27.2366 49.2393 26.8948 49.2363 26.6062 49.3838L21.2849 52.0928L17.9109 48.7031L20.6204 43.3994C20.7649 43.1162 20.7664 42.7812 20.6243 42.4971C20.1492 41.5469 19.802 40.7148 19.5315 39.877C19.4329 39.5723 19.1941 39.333 18.8889 39.2334L13.2126 37.3896L13.2273 32.6045L18.8967 30.7773C19.2102 30.6758 19.4539 30.4268 19.5481 30.1113C19.8157 29.2168 20.1731 28.3477 20.6121 27.5254C20.7659 27.2373 20.7693 26.8916 20.6204 26.6006L17.9207 21.3076L21.3118 17.9082L26.6125 20.6348C26.9109 20.7861 27.2649 20.7813 27.5569 20.6191C28.2732 20.2197 29.0486 19.8955 30.1506 19.5352C30.4548 19.4365 30.6931 19.1973 30.7917 18.8926L32.6277 13.2148H37.4099L39.2273 18.8994C39.3269 19.21 39.571 19.4521 39.8816 19.5488C40.8196 19.8418 41.6907 20.207 42.4705 20.6328C42.7605 20.79 43.1101 20.7959 43.4041 20.6455L48.7361 17.9268L52.1184 21.3164L49.3899 26.6387C49.2419 26.9277 49.2434 27.2705 49.3938 27.5576C49.7756 28.2891 50.1321 29.1455 50.4832 30.1768C50.5852 30.4766 50.823 30.71 51.1243 30.8066L56.7898 32.624V37.4062L51.114 39.2324C50.8074 39.3311 50.5676 39.5713 50.4685 39.877C50.1448 40.8799 49.7927 41.7236 49.3923 42.4541C49.2341 42.7441 49.2288 43.0928 49.3782 43.3867Z" fill="black"/>
<path d="M36.2542 25.5645C31.0535 24.8711 26.2546 28.542 25.5608 33.7441C25.2244 36.2686 25.8879 38.7734 27.4299 40.7959C28.9739 42.8203 31.2136 44.1211 33.7376 44.457C34.1628 44.5137 34.5852 44.541 35.0032 44.541C39.7083 44.541 43.8152 41.0488 44.4529 36.2607C45.1462 31.0586 41.4685 26.2598 36.2542 25.5645ZM42.4705 35.9971C41.9221 40.1172 38.1311 43.0244 34.0012 42.4746C32.0085 42.209 30.2395 41.1826 29.0208 39.583C27.802 37.9844 27.2771 36.0049 27.5432 34.0078C28.0461 30.2334 31.2835 27.4805 34.9924 27.4805C35.322 27.4805 35.655 27.502 35.99 27.5469C40.1111 28.0967 43.0178 31.8867 42.4705 35.9971Z" fill="black"/>
</svg>
