<svg width="188" height="188" viewBox="0 0 188 188" fill="none" xmlns="http://www.w3.org/2000/svg">
<circle cx="94" cy="94" r="93" fill="#43BB73" stroke="#2E0E0E" stroke-width="2" stroke-dasharray="4 4"/>
<path d="M73.7527 92.3306L62.9689 100.033L64.7595 102.54L75.5432 94.8376L73.7527 92.3306Z" fill="white"/>
<path d="M87.9052 86.0062L77.1219 90.6277L78.3356 93.4595L89.1189 88.838L87.9052 86.0062Z" fill="white"/>
<path d="M100.836 93.5839L90.7665 87.1815L91.593 84.341L101.837 90.5688L100.836 93.5839Z" fill="white"/>
<path d="M115.151 78.6306L102.828 90.955L105.007 93.1335L117.33 80.8091L115.151 78.6306Z" fill="white"/>
<path d="M129.091 66.2366L116.767 77.0196L118.795 79.3382L131.119 68.5552L129.091 66.2366Z" fill="white"/>
<path d="M65.851 110.722H59.0503V124.201H65.851V110.722Z" fill="#696969"/>
<path d="M79.6543 102.827H72.8536V124.201H79.6543V102.827Z" fill="#696969"/>
<path d="M93.4574 95.7984H86.6567V124.201H93.4574V95.7984Z" fill="#696969"/>
<path d="M107.261 101.094H100.46V124.201H107.261V101.094Z" fill="#696969"/>
<path d="M121.064 87.3257H114.263V124.201H121.064V87.3257Z" fill="#696969"/>
<path d="M134.867 76.4461H128.066V124.201H134.867V76.4461Z" fill="#696969"/>
<path d="M138 125.741H51.5405C51.1319 125.741 50.7401 125.579 50.4512 125.29C50.1623 125.001 50 124.61 50 124.201V73.5577H53.081V122.66H138V125.741Z" fill="#3B3B3B"/>
<path d="M62.4507 105.264C64.3287 105.264 65.8512 103.742 65.8512 101.864C65.8512 99.986 64.3287 98.4636 62.4507 98.4636C60.5727 98.4636 59.0503 99.986 59.0503 101.864C59.0503 103.742 60.5727 105.264 62.4507 105.264Z" fill="#696969"/>
<path d="M76.2538 97.3038C78.1318 97.3038 79.6543 95.7814 79.6543 93.9034C79.6543 92.0254 78.1318 90.5029 76.2538 90.5029C74.3758 90.5029 72.8534 92.0254 72.8534 93.9034C72.8534 95.7814 74.3758 97.3038 76.2538 97.3038Z" fill="#696969"/>
<path d="M90.0571 90.7261C91.9351 90.7261 93.4576 89.2037 93.4576 87.3257C93.4576 85.4477 91.9351 83.9253 90.0571 83.9253C88.1791 83.9253 86.6567 85.4477 86.6567 87.3257C86.6567 89.2037 88.1791 90.7261 90.0571 90.7261Z" fill="#696969"/>
<path d="M103.86 96.8172C105.738 96.8172 107.261 95.2948 107.261 93.4168C107.261 91.5388 105.738 90.0164 103.86 90.0164C101.982 90.0164 100.46 91.5388 100.46 93.4168C100.46 95.2948 101.982 96.8172 103.86 96.8172Z" fill="#696969"/>
<path d="M117.664 82.5127C119.542 82.5127 121.064 80.9902 121.064 79.1122C121.064 77.2342 119.542 75.7118 117.664 75.7118C115.786 75.7118 114.263 77.2342 114.263 79.1122C114.263 80.9902 115.786 82.5127 117.664 82.5127Z" fill="#696969"/>
<path d="M131.467 70.3454C133.345 70.3454 134.867 68.8229 134.867 66.9449C134.867 65.0669 133.345 63.5445 131.467 63.5445C129.589 63.5445 128.066 65.0669 128.066 66.9449C128.066 68.8229 129.589 70.3454 131.467 70.3454Z" fill="#696969"/>
<path d="M50 124.201C50 124.61 50.1623 125.001 50.4512 125.29C50.7401 125.579 51.1319 125.741 51.5405 125.741H138V122.66H136.408V76.4461C136.408 76.0375 136.245 75.6457 135.956 75.3568C135.667 75.0679 135.276 74.9056 134.867 74.9056H128.066C127.658 74.9056 127.266 75.0679 126.977 75.3568C126.688 75.6457 126.526 76.0375 126.526 76.4461V122.66H122.604V87.3257C122.604 86.9171 122.442 86.5253 122.153 86.2364C121.864 85.9475 121.473 85.7852 121.064 85.7852H114.263C113.855 85.7852 113.463 85.9475 113.174 86.2364C112.885 86.5253 112.723 86.9171 112.723 87.3257V122.66H108.801V101.094C108.801 100.685 108.639 100.293 108.35 100.004C108.061 99.7156 107.669 99.5533 107.261 99.5533H100.46C100.051 99.5533 99.6596 99.7156 99.3707 100.004C99.0818 100.293 98.9195 100.685 98.9195 101.094V122.66H94.998V95.7984C94.998 95.3898 94.8357 94.998 94.5468 94.7091C94.2579 94.4202 93.8661 94.2579 93.4576 94.2579H86.6567C86.2482 94.2579 85.8563 94.4202 85.5674 94.7091C85.2785 94.998 85.1162 95.3898 85.1162 95.7984V122.66H81.1947V102.827C81.1947 102.418 81.0325 102.026 80.7436 101.738C80.4547 101.449 80.0628 101.286 79.6543 101.286H72.8536C72.4451 101.286 72.0532 101.449 71.7643 101.738C71.4754 102.026 71.3131 102.418 71.3131 102.827V122.66H67.3915V110.722C67.3915 110.313 67.2292 109.921 66.9403 109.632C66.6514 109.344 66.2595 109.181 65.851 109.181H59.0503C58.6418 109.181 58.2499 109.344 57.961 109.632C57.6721 109.921 57.5098 110.313 57.5098 110.722V122.66H53.081V73.5577H50V124.201ZM129.607 77.9865H133.327V122.66H129.607V77.9865ZM115.804 88.8662H119.523V122.66H115.804V88.8662ZM102 102.634H105.72V122.66H102V102.634ZM88.1972 97.3388H91.9171V122.66H88.1972V97.3388ZM74.3941 104.367H78.1138V122.66H74.3941V104.367ZM60.5908 112.262H64.3105V122.66H60.5908V112.262Z" fill="black"/>
<path d="M131.467 71.8857C132.495 71.886 133.499 71.5654 134.337 70.9684C135.175 70.3714 135.805 69.5278 136.141 68.5553C136.477 67.5828 136.5 66.5297 136.209 65.543C135.918 64.5563 135.326 63.6851 134.516 63.0509C133.705 62.4167 132.718 62.051 131.69 62.005C130.662 61.9589 129.646 62.2347 128.782 62.7939C127.918 63.3531 127.251 64.1678 126.872 65.1245C126.494 66.0811 126.423 67.1321 126.671 68.1307L119.288 74.4473C118.434 74.149 117.515 74.0911 116.63 74.2799C115.745 74.4686 114.929 74.8968 114.272 75.5176C113.614 76.1384 113.139 76.928 112.899 77.8002C112.659 78.6724 112.664 79.5938 112.912 80.4636L105.59 88.7892C104.737 88.4695 103.811 88.3926 102.917 88.5671C102.022 88.7415 101.193 89.1606 100.522 89.7776L94.91 86.4014C94.6799 85.1932 94.0074 84.1142 93.024 83.3755C92.0406 82.6368 90.8171 82.2915 89.5926 82.407C88.3681 82.5226 87.2307 83.0908 86.4028 84.0004C85.575 84.91 85.1162 86.0958 85.1162 87.3257C85.1162 87.3642 85.1184 87.4039 85.1193 87.443L79.3173 90.031C78.5898 89.4541 77.7143 89.0941 76.7915 88.9923C75.8686 88.8904 74.9357 89.0509 74.1 89.4553C73.2642 89.8596 72.5593 90.4915 72.0664 91.2783C71.5735 92.0651 71.3124 92.9749 71.3131 93.9034C71.3132 94.0757 71.3222 94.2479 71.3401 94.4192L65.799 98.2348C64.9354 97.4391 63.8167 96.977 62.6433 96.9315C61.4699 96.8859 60.3187 97.2598 59.396 97.9862C58.4734 98.7125 57.8397 99.7438 57.6085 100.895C57.3774 102.046 57.5639 103.242 58.1347 104.269C58.7055 105.295 59.6232 106.084 60.7232 106.495C61.8232 106.906 63.0336 106.911 64.1374 106.511C65.2412 106.11 66.1661 105.329 66.7463 104.308C67.3265 103.287 67.524 102.093 67.3035 100.94L72.6383 97.2662C73.3881 98.0731 74.3861 98.6061 75.4736 98.7807C76.5611 98.9552 77.6757 98.7612 78.6403 98.2295C79.6049 97.6978 80.3641 96.8589 80.7971 95.8462C81.2302 94.8335 81.3124 93.7051 81.0305 92.6404L86.157 90.3537C86.6596 91.0024 87.3159 91.5155 88.0666 91.8467C88.8173 92.1779 89.6388 92.3167 90.4566 92.2506C91.2745 92.1845 92.063 91.9155 92.7508 91.468C93.4385 91.0205 94.0039 90.4086 94.3957 89.6877L99.0125 92.4646C98.8556 93.2593 98.8966 94.0805 99.1317 94.8558C99.3668 95.631 99.789 96.3365 100.361 96.9102C100.933 97.4839 101.637 97.9082 102.412 98.1456C103.186 98.3831 104.007 98.4265 104.803 98.2719C105.598 98.1174 106.343 97.7697 106.972 97.2595C107.601 96.7492 108.096 96.0921 108.411 95.3459C108.727 94.5998 108.854 93.7875 108.781 92.9806C108.709 92.1737 108.44 91.397 107.996 90.7188L114.717 83.0763C115.65 83.7711 116.799 84.1139 117.961 84.0443C119.122 83.9747 120.222 83.4972 121.066 82.6959C121.909 81.8946 122.443 80.8211 122.573 79.6647C122.702 78.5082 122.419 77.3433 121.773 76.3752L128.333 70.7619C129.215 71.4893 130.323 71.8867 131.467 71.8857ZM131.467 65.085C131.835 65.085 132.194 65.194 132.5 65.3984C132.806 65.6027 133.044 65.8932 133.185 66.233C133.326 66.5729 133.363 66.9469 133.291 67.3077C133.219 67.6685 133.042 67.9999 132.782 68.2601C132.522 68.5202 132.191 68.6974 131.83 68.7691C131.469 68.8409 131.095 68.8041 130.755 68.6633C130.415 68.5226 130.125 68.2842 129.92 67.9783C129.716 67.6724 129.607 67.3128 129.607 66.9449C129.607 66.4519 129.804 65.9791 130.152 65.6305C130.501 65.2818 130.974 65.0856 131.467 65.085ZM62.4507 103.724C62.0829 103.724 61.7233 103.615 61.4174 103.411C61.1115 103.206 60.8731 102.916 60.7323 102.576C60.5914 102.236 60.5546 101.862 60.6263 101.501C60.6981 101.14 60.8752 100.809 61.1353 100.549C61.3954 100.289 61.7268 100.112 62.0876 100.04C62.4484 99.968 62.8224 100.005 63.1623 100.146C63.5022 100.286 63.7926 100.525 63.997 100.831C64.2014 101.137 64.3105 101.496 64.3105 101.864C64.3099 102.357 64.1138 102.83 63.7652 103.178C63.4165 103.527 62.9438 103.723 62.4507 103.724ZM76.2538 95.7631C75.886 95.7631 75.5264 95.654 75.2205 95.4496C74.9146 95.2453 74.6762 94.9548 74.5355 94.6149C74.3947 94.275 74.3579 93.901 74.4297 93.5403C74.5014 93.1795 74.6786 92.848 74.9387 92.5879C75.1989 92.3278 75.5303 92.1507 75.8911 92.079C76.2519 92.0072 76.6259 92.0441 76.9657 92.1849C77.3056 92.3257 77.5961 92.5641 77.8004 92.87C78.0048 93.1759 78.1138 93.5355 78.1138 93.9034C78.1132 94.3965 77.917 94.8692 77.5683 95.2178C77.2197 95.5664 76.7469 95.7626 76.2538 95.7631ZM90.0569 89.1856C89.6891 89.1856 89.3295 89.0765 89.0237 88.8721C88.7178 88.6677 88.4795 88.3772 88.3387 88.0373C88.198 87.6975 88.1612 87.3235 88.233 86.9627C88.3048 86.602 88.4819 86.2706 88.742 86.0105C89.0022 85.7504 89.3336 85.5732 89.6944 85.5015C90.0551 85.4297 90.4291 85.4666 90.769 85.6074C91.1088 85.7481 91.3993 85.9865 91.6036 86.2924C91.808 86.5983 91.9171 86.9579 91.9171 87.3257C91.9165 87.8189 91.7204 88.2916 91.3716 88.6403C91.0229 88.989 90.5501 89.1851 90.0569 89.1856ZM103.86 95.2767C103.492 95.2767 103.133 95.1676 102.827 94.9633C102.521 94.7589 102.283 94.4684 102.142 94.1285C102.001 93.7887 101.964 93.4147 102.036 93.0539C102.108 92.6931 102.285 92.3617 102.545 92.1016C102.805 91.8415 103.137 91.6643 103.497 91.5926C103.858 91.5208 104.232 91.5576 104.572 91.6984C104.912 91.8392 105.202 92.0776 105.407 92.3834C105.611 92.6893 105.72 93.0489 105.72 93.4168C105.72 93.9099 105.523 94.3826 105.175 94.7313C104.826 95.08 104.353 95.2761 103.86 95.2767ZM117.664 80.9722C117.296 80.9722 116.936 80.8631 116.63 80.6587C116.324 80.4544 116.086 80.1639 115.945 79.824C115.804 79.4842 115.768 79.1102 115.839 78.7494C115.911 78.3886 116.088 78.0572 116.348 77.7971C116.608 77.537 116.94 77.3598 117.301 77.288C117.661 77.2163 118.035 77.2531 118.375 77.3939C118.715 77.5347 119.006 77.7731 119.21 78.0789C119.414 78.3848 119.523 78.7444 119.523 79.1122C119.523 79.6054 119.327 80.0781 118.978 80.4268C118.629 80.7755 118.157 80.9716 117.664 80.9722Z" fill="black"/>
</svg>
