<svg width="188" height="189" viewBox="0 0 188 189" fill="none" xmlns="http://www.w3.org/2000/svg">
<circle cx="94" cy="94.5" r="93" fill="#43BB73" stroke="#2E0E0E" stroke-width="2" stroke-dasharray="4 4"/>
<path d="M115.519 83.2534L115.562 67.1916C115.562 66.6214 115.392 66.0643 115.075 65.5908C114.757 65.1174 114.306 64.7492 113.778 64.5328C113.251 64.3165 112.671 64.2619 112.112 64.3759C111.554 64.49 111.042 64.7675 110.641 65.1733C106.92 68.9741 97.3788 78.7001 76.0701 82.1228C75.6814 81.5113 75.1447 81.0077 74.5098 80.6585C73.8748 80.3094 73.1621 80.126 72.4375 80.1254H59.5C58.5647 80.127 57.6551 80.4323 56.9082 80.9954C56.1613 81.5584 55.6175 82.3488 55.3586 83.2476C54.4997 83.2174 53.6336 83.1829 52.7466 83.1326C52.1561 83.1013 51.5654 83.1913 51.0111 83.3973C50.4568 83.6033 49.9506 83.9207 49.5238 84.33C49.0522 84.7769 48.6762 85.3148 48.4184 85.9111C48.1606 86.5074 48.0263 87.1498 48.0237 87.7994L48 96.6652C47.9983 97.3243 48.132 97.9768 48.3929 98.5821C48.6538 99.1874 49.0363 99.7327 49.5166 100.184C49.9408 100.591 50.4452 100.904 50.9976 101.105C51.5499 101.306 52.138 101.389 52.7244 101.349C53.5976 101.288 54.4508 101.243 55.2975 101.203C55.508 102.125 56.0158 102.953 56.7429 103.558C57.4699 104.164 58.3758 104.513 59.321 104.553C59.8838 105.706 60.4279 106.853 60.8915 107.862C63.1987 112.358 62.0552 118.279 61.4564 120.617C61.3567 120.991 61.3609 121.385 61.4686 121.757C61.5762 122.129 61.7833 122.464 62.0674 122.727C62.3392 122.967 62.6697 123.131 63.0253 123.202C63.3809 123.273 63.749 123.248 64.0921 123.131L73.9009 119.622C74.1739 119.522 74.4237 119.368 74.6349 119.168C74.8461 118.968 75.0143 118.727 75.1292 118.46C75.2488 118.186 75.3111 117.891 75.3123 117.591C75.3136 117.292 75.2537 116.996 75.1364 116.721L71.0216 107.21C70.6166 106.349 70.2622 105.465 69.96 104.563H72.4375C73.225 104.562 73.9973 104.346 74.6705 103.937C75.3438 103.529 75.8924 102.944 76.2569 102.245C97.0827 105.674 106.712 115.6 110.486 119.497C110.886 119.906 111.398 120.187 111.957 120.306C112.517 120.425 113.099 120.375 113.63 120.164C114.16 119.952 114.614 119.587 114.934 119.114C115.254 118.642 115.426 118.085 115.426 117.515L115.469 101.458C117.209 100.659 118.683 99.3789 119.719 97.7688C120.755 96.1588 121.308 94.286 121.313 92.3716C121.318 90.4573 120.776 88.5815 119.749 86.9657C118.722 85.35 117.255 84.0618 115.519 83.2534ZM55.1875 98.3269C54.3106 98.37 53.4259 98.4182 52.5238 98.4814C52.3319 98.4905 52.1401 98.4599 51.9606 98.3916C51.781 98.3232 51.6175 98.2184 51.4802 98.084C51.2893 97.902 51.1373 97.6832 51.0333 97.4408C50.9293 97.1984 50.8754 96.9375 50.875 96.6738L50.8995 87.8073C50.9016 87.5484 50.9554 87.2924 51.0579 87.0546C51.1603 86.8167 51.3093 86.6018 51.496 86.4223C51.6387 86.2812 51.809 86.171 51.9963 86.0987C52.1835 86.0263 52.3837 85.9934 52.5842 86.0019C53.4604 86.0522 54.3257 86.0867 55.1875 86.1169V98.3269ZM72.2003 117.177L64.5665 119.908C65.2133 116.717 65.8042 111.139 63.4768 106.605C63.3065 106.235 62.9622 105.491 62.5209 104.563H66.9376C67.3278 105.875 67.8174 107.156 68.4024 108.394L72.2003 117.177ZM73.875 100.25C73.8746 100.631 73.723 100.997 73.4535 101.266C73.184 101.536 72.8186 101.687 72.4375 101.688H59.5C59.1189 101.687 58.7535 101.536 58.484 101.266C58.2145 100.997 58.0629 100.631 58.0625 100.25V84.4379C58.0629 84.0567 58.2145 83.6913 58.484 83.4218C58.7535 83.1523 59.1189 83.0008 59.5 83.0004H72.4375C72.8186 83.0008 73.184 83.1523 73.4535 83.4218C73.723 83.6913 73.8746 84.0567 73.875 84.4379V100.25ZM112.687 117.5L112.551 117.497C108.592 113.409 98.4756 102.981 76.75 99.4072V84.8935C83.0388 83.9089 89.174 82.1158 95.0034 79.559C101.658 76.6449 107.669 72.4401 112.687 67.188V117.5ZM115.478 98.14L115.51 86.5697C116.42 87.2362 117.16 88.1084 117.669 89.1152C118.177 90.122 118.441 91.2348 118.438 92.3629C118.435 93.491 118.165 94.6023 117.651 95.6063C117.136 96.6103 116.392 97.4785 115.478 98.14ZM124.906 88.0316C125.095 88.0318 125.282 87.9947 125.456 87.9225C125.631 87.8502 125.789 87.7441 125.923 87.6104L130.235 83.2979C130.497 83.0268 130.642 82.6637 130.638 82.2868C130.635 81.9099 130.484 81.5494 130.218 81.2828C129.951 81.0163 129.59 80.8651 129.214 80.8619C128.837 80.8586 128.474 81.0035 128.202 81.2653L123.89 85.5778C123.689 85.7788 123.552 86.0349 123.497 86.3137C123.441 86.5925 123.47 86.8815 123.578 87.1442C123.687 87.4068 123.871 87.6313 124.108 87.7892C124.344 87.9472 124.622 88.0315 124.906 88.0316ZM123.89 99.1103L128.202 103.423C128.474 103.685 128.837 103.83 129.214 103.826C129.59 103.823 129.951 103.672 130.218 103.405C130.484 103.139 130.635 102.778 130.638 102.401C130.642 102.024 130.497 101.661 130.235 101.39L125.923 97.0777C125.651 96.8159 125.288 96.671 124.911 96.6742C124.534 96.6775 124.174 96.8287 123.907 97.0952C123.641 97.3617 123.49 97.7223 123.486 98.0992C123.483 98.4761 123.628 98.8392 123.89 99.1103Z" fill="white"/>
<path d="M67.4062 92.347C67.4079 91.5531 66.7656 90.9082 65.9717 90.9066C65.1778 90.9049 64.5329 91.5472 64.5313 92.3411C64.5296 93.135 65.1719 93.7799 65.9658 93.7815C66.7597 93.7832 67.4046 93.1409 67.4062 92.347Z" fill="white"/>
<path d="M102.626 60.7193C102.928 60.7195 103.222 60.6247 103.466 60.4483L112.46 53.9667C112.445 54.3045 112.55 54.6367 112.756 54.9047C112.963 55.1727 113.257 55.3593 113.587 55.4315C113.918 55.5037 114.263 55.4569 114.562 55.2993C114.861 55.1418 115.095 54.8836 115.222 54.5704L116.894 50.4822C116.989 50.2489 117.022 49.9946 116.988 49.7448C116.954 49.495 116.855 49.2585 116.701 49.059C116.547 48.8595 116.343 48.704 116.11 48.6082C115.877 48.5123 115.623 48.4794 115.373 48.5128L111.045 49.09C110.743 49.1299 110.461 49.2651 110.24 49.4761C110.02 49.687 109.873 49.9627 109.82 50.2631C109.766 50.5635 109.81 50.873 109.945 51.1467C110.08 51.4204 110.298 51.6441 110.569 51.7853L101.784 58.1153C101.537 58.293 101.353 58.5444 101.258 58.8334C101.163 59.1224 101.163 59.4341 101.256 59.7235C101.35 60.013 101.532 60.2653 101.778 60.4442C102.024 60.6232 102.321 60.7195 102.625 60.7193H102.626ZM128.501 58.563C128.8 58.5629 129.092 58.4694 129.335 58.2957L136.001 53.5347C136.122 53.7647 136.303 53.9572 136.525 54.0915C136.748 54.2258 137.002 54.2967 137.262 54.2966C137.54 54.2965 137.812 54.2159 138.045 54.0645C138.279 53.913 138.463 53.6973 138.576 53.4434L139.876 50.5224C139.979 50.29 140.019 50.0343 139.991 49.7813C139.964 49.5284 139.87 49.2873 139.718 49.0827C139.567 48.8782 139.364 48.7174 139.13 48.6169C138.897 48.5164 138.64 48.4797 138.388 48.5107L135.022 48.9232C134.759 48.9545 134.509 49.0581 134.302 49.2226C134.094 49.387 133.936 49.6059 133.845 49.8548C133.754 50.1037 133.734 50.373 133.787 50.6326C133.841 50.8922 133.965 51.1319 134.146 51.3253L127.664 55.9554C127.416 56.1325 127.231 56.3838 127.135 56.6732C127.039 56.9625 127.037 57.2748 127.13 57.565C127.224 57.8553 127.407 58.1083 127.653 58.2877C127.899 58.4671 128.197 58.5635 128.501 58.563Z" fill="white"/>
<path d="M125.243 60.6094C125.244 59.8155 124.602 59.1706 123.808 59.1689C123.014 59.1673 122.369 59.8096 122.368 60.6035C122.366 61.3974 123.008 62.0423 123.802 62.0439C124.596 62.0455 125.241 61.4033 125.243 60.6094Z" fill="white"/>
<path d="M99.0312 62.8784C99.0328 62.0845 98.3906 61.4396 97.5967 61.438C96.8028 61.4364 96.1579 62.0787 96.1562 62.8726C96.1546 63.6665 96.7969 64.3114 97.5908 64.313C98.3847 64.3146 99.0296 63.6723 99.0312 62.8784Z" fill="white"/>
<path d="M115.222 134.429C115.095 134.116 114.861 133.858 114.562 133.701C114.263 133.543 113.918 133.496 113.587 133.568C113.257 133.641 112.963 133.827 112.756 134.095C112.55 134.363 112.445 134.695 112.46 135.033L103.466 128.552C103.157 128.329 102.771 128.238 102.395 128.299C102.018 128.36 101.681 128.569 101.458 128.878C101.235 129.187 101.144 129.573 101.205 129.949C101.267 130.326 101.475 130.662 101.784 130.885L110.569 137.215C110.298 137.356 110.08 137.579 109.945 137.853C109.81 138.127 109.766 138.436 109.82 138.737C109.873 139.037 110.02 139.313 110.24 139.524C110.461 139.735 110.743 139.87 111.045 139.91L115.372 140.487C115.622 140.521 115.876 140.488 116.109 140.392C116.343 140.296 116.547 140.141 116.701 139.941C116.855 139.742 116.954 139.505 116.988 139.255C117.022 139.005 116.989 138.751 116.894 138.518L115.222 134.429ZM138.576 135.557C138.468 135.311 138.292 135.1 138.07 134.949C137.847 134.798 137.586 134.712 137.317 134.703C137.048 134.693 136.782 134.76 136.549 134.895C136.316 135.03 136.126 135.228 136.001 135.466L129.336 130.705C129.026 130.483 128.64 130.394 128.264 130.457C127.887 130.519 127.552 130.729 127.33 131.039C127.108 131.349 127.019 131.735 127.081 132.111C127.144 132.488 127.354 132.823 127.664 133.045L134.147 137.675C133.939 137.895 133.807 138.175 133.77 138.475C133.747 138.663 133.761 138.853 133.811 139.035C133.862 139.217 133.948 139.387 134.064 139.536C134.18 139.684 134.325 139.809 134.489 139.902C134.653 139.995 134.834 140.054 135.022 140.077L138.388 140.489C138.446 140.496 138.504 140.5 138.562 140.5C138.802 140.5 139.038 140.44 139.248 140.326C139.459 140.211 139.637 140.046 139.768 139.845C139.898 139.644 139.976 139.414 139.995 139.175C140.014 138.936 139.972 138.696 139.875 138.477L138.576 135.557Z" fill="white"/>
<path d="M123.643 129.986C124.437 129.986 125.08 129.343 125.08 128.549C125.08 127.755 124.437 127.111 123.643 127.111C122.849 127.111 122.205 127.755 122.205 128.549C122.205 129.343 122.849 129.986 123.643 129.986Z" fill="white"/>
<path d="M97.4356 127.664C98.2295 127.664 98.8731 127.02 98.8731 126.226C98.8731 125.433 98.2295 124.789 97.4356 124.789C96.6417 124.789 95.9981 125.433 95.9981 126.226C95.9981 127.02 96.6417 127.664 97.4356 127.664Z" fill="white"/>
<path d="M134.25 92.3441C134.25 91.9628 134.098 91.5972 133.829 91.3276C133.559 91.058 133.194 90.9066 132.812 90.9066H125.625C125.244 90.9066 124.878 91.058 124.608 91.3276C124.339 91.5972 124.187 91.9628 124.187 92.3441C124.187 92.7253 124.339 93.0909 124.608 93.3605C124.878 93.6301 125.244 93.7816 125.625 93.7816H132.812C133.194 93.7816 133.559 93.6301 133.829 93.3605C134.098 93.0909 134.25 92.7253 134.25 92.3441ZM90.4062 72.2192C91.2592 72.2192 92.0929 71.9663 92.8021 71.4924C93.5113 71.0185 94.0641 70.345 94.3905 69.557C94.7169 68.769 94.8023 67.9019 94.6359 67.0654C94.4695 66.2289 94.0587 65.4604 93.4556 64.8573C92.8525 64.2542 92.0841 63.8435 91.2476 63.6771C90.411 63.5107 89.5439 63.5961 88.7559 63.9225C87.9679 64.2489 87.2944 64.8017 86.8205 65.5108C86.3467 66.22 86.0937 67.0538 86.0937 67.9067C86.0951 69.05 86.5498 70.1462 87.3583 70.9546C88.1668 71.7631 89.2629 72.2179 90.4062 72.2192ZM90.4062 66.4692C90.6905 66.4692 90.9685 66.5535 91.2049 66.7115C91.4413 66.8694 91.6255 67.0939 91.7343 67.3566C91.8431 67.6193 91.8716 67.9083 91.8161 68.1872C91.7606 68.466 91.6237 68.7221 91.4227 68.9232C91.2217 69.1242 90.9655 69.2611 90.6867 69.3166C90.4078 69.3721 90.1188 69.3436 89.8561 69.2348C89.5935 69.126 89.369 68.9417 89.211 68.7053C89.053 68.469 88.9687 68.191 88.9687 67.9067C88.9691 67.5256 89.1207 67.1602 89.3902 66.8907C89.6597 66.6212 90.0251 66.4696 90.4062 66.4692ZM90.4062 116.781C89.5533 116.781 88.7195 117.034 88.0103 117.508C87.3012 117.982 86.7484 118.656 86.422 119.444C86.0956 120.232 86.0102 121.099 86.1766 121.935C86.343 122.772 86.7537 123.54 87.3568 124.143C87.96 124.746 88.7284 125.157 89.5649 125.323C90.4014 125.49 91.2686 125.404 92.0566 125.078C92.8446 124.752 93.5181 124.199 93.9919 123.49C94.4658 122.781 94.7187 121.947 94.7187 121.094C94.7174 119.951 94.2626 118.854 93.4542 118.046C92.6457 117.238 91.5496 116.783 90.4062 116.781ZM90.4062 122.531C90.1219 122.531 89.844 122.447 89.6076 122.289C89.3712 122.131 89.187 121.907 89.0782 121.644C88.9694 121.381 88.9409 121.092 88.9964 120.813C89.0518 120.535 89.1887 120.278 89.3898 120.077C89.5908 119.876 89.8469 119.739 90.1258 119.684C90.4046 119.629 90.6937 119.657 90.9563 119.766C91.219 119.875 91.4435 120.059 91.6015 120.295C91.7594 120.532 91.8437 120.81 91.8437 121.094C91.8434 121.475 91.6918 121.84 91.4223 122.11C91.1528 122.379 90.7874 122.531 90.4062 122.531Z" fill="white"/>
</svg>
