<svg width="188" height="189" viewBox="0 0 188 189" fill="none" xmlns="http://www.w3.org/2000/svg">
<circle cx="94" cy="94.5" r="93" fill="#43BB73" stroke="#2E0E0E" stroke-width="2" stroke-dasharray="4 4"/>
<path fill-rule="evenodd" clip-rule="evenodd" d="M114.022 78.7355C114.831 77.7654 117.525 74.5316 118.55 75.5018C120.382 77.2803 124.155 76.6875 126.149 76.2024C126.149 78.8972 126.418 81.053 124.37 83.1549C120.651 86.8199 113.968 84.4484 114.022 78.7355ZM118.226 86.8738C119.412 87.1432 120.651 87.1432 121.891 86.8738C120.005 88.7601 120.059 88.7062 118.226 86.8738ZM122.214 94.2036L121.352 90.1075C122.053 89.7841 123.077 88.814 123.616 88.1673C123.777 88.5984 124.047 89.5685 124.316 89.8919L122.214 94.2036ZM111.866 78.8972C111.866 81.6998 113.214 83.9634 115.154 85.4186L114.238 88.1134H113.968C102.866 88.1134 100.494 99.0003 100.494 98.9464L99.4165 98.8925L98.3925 96.3055C102.92 93.0179 101.465 88.5445 101.842 87.5744C101.896 87.5205 101.95 87.4127 102.004 87.3049C110.142 71.3518 89.5536 68.7109 81.1459 81.1608C80.6608 81.8615 81.092 82.7238 81.7926 82.8316H81.8465C85.3497 83.5322 85.4036 87.4127 85.4036 89.6224C85.4036 92.4789 86.751 94.7425 88.6913 96.1977L87.775 98.8386C87.6673 98.8386 87.5595 98.8386 87.5056 98.8386C87.5056 98.9464 85.0264 88.1134 73.7083 88.1134L72.7381 85.5264C77.1576 82.2387 75.8641 77.4959 76.1336 76.7953C76.1875 76.7414 76.2414 76.6336 76.2953 76.5797C80.3374 68.657 77.481 62.2973 69.181 62.5668C64.3843 62.7285 58.7252 65.3694 55.4376 70.3817C54.9525 71.0823 55.3837 71.9446 56.1383 72.1063C59.6415 72.7531 59.6954 76.6336 59.6954 78.8972C59.6954 81.6998 61.0428 83.9634 62.983 85.4186L62.0668 88.1134H61.7973C54.198 88.1134 48 94.3114 48 101.857V114.576C48 115.169 48.4851 115.654 49.0779 115.654H73.7083V125.355C73.7083 125.948 74.1933 126.433 74.7862 126.433H112.459C113.052 126.433 113.537 125.948 113.537 125.355V115.654H138.922C139.515 115.654 140 115.169 140 114.576V101.857C140 94.2575 133.856 88.1134 125.879 88.1134L124.855 85.5264C129.329 82.2387 128.035 77.4959 128.305 76.7953C128.359 76.7414 128.412 76.6336 128.466 76.5797C132.455 68.657 129.652 62.2973 121.352 62.5668C116.555 62.7285 110.842 65.3694 107.609 70.3817C107.124 71.0823 107.555 71.9446 108.309 72.1063C111.813 72.7531 111.866 76.6336 111.866 78.8972ZM100.171 101.102V114.576C100.171 115.169 100.656 115.654 101.249 115.654H105.237C105.076 116.301 105.183 123.038 105.183 124.277H82.0082C82.0082 123.038 82.1699 116.301 82.0082 115.654H86.751C87.3439 115.654 87.8289 115.169 87.8289 114.576V102.45L90.6854 108.432L88.853 116.84C88.7991 117.163 88.853 117.487 89.0685 117.756L92.7335 122.175C93.1107 122.768 93.9731 122.822 94.4581 122.283L98.0691 117.864C98.3386 117.594 98.4464 117.217 98.3386 116.84L96.5062 108.378L100.063 101.102H100.171ZM107.285 115.654H111.381V124.277H107.339C107.339 123.038 107.447 116.301 107.285 115.654ZM115.801 89.8919C116.016 89.6763 116.34 88.4906 116.501 88.1134C116.987 88.7601 118.118 89.838 118.819 90.1075L117.903 94.2575L115.801 89.8919ZM117.525 106.061L120.059 94.3653L122.592 106.061L120.059 109.133L117.525 106.061ZM110.573 70.6511C110.465 70.5972 110.357 70.4895 110.196 70.4356C114.885 64.5609 125.448 62.4051 127.766 67.6869C119.681 66.2856 112.944 68.4953 110.573 70.6511ZM113.807 75.7712C113.591 74.5855 113.16 73.2381 112.298 72.1602C117.364 68.2797 125.61 69.4654 128.197 69.9505C128.143 71.1362 127.873 72.4297 127.335 73.7771C126.634 73.6154 121.783 75.6634 120.005 73.9927C118.172 72.2141 115.531 74.1005 113.807 75.7712ZM122.969 97.599L126.526 90.2692C129.598 90.4848 132.077 91.2932 134.395 93.6646C136.497 95.7666 137.844 98.6769 137.844 101.857V113.498H133.802V105.198C133.802 103.743 131.646 103.743 131.646 105.198V113.498H108.471V105.198C108.471 103.743 106.315 103.743 106.315 105.198V113.498H102.327V101.857C102.327 95.6049 107.393 90.4309 113.591 90.2692L117.148 97.6529L115.316 106.061C115.262 106.384 115.316 106.707 115.531 106.977L119.196 111.396C119.574 111.989 120.436 112.043 120.921 111.504L124.532 107.085C124.801 106.815 124.909 106.438 124.801 106.115L122.969 97.599ZM61.8512 78.7355C62.6596 77.7654 65.3544 74.5316 66.3784 75.5018C68.2109 77.2803 71.9836 76.6875 73.9777 76.2024C73.9777 78.8972 74.2472 81.053 72.1992 83.1549C68.4804 86.8199 61.7973 84.4484 61.8512 78.7355ZM66.0551 86.8738C67.2408 87.1432 68.4804 87.1432 69.72 86.8738C67.8336 88.7601 67.8875 88.7062 66.0551 86.8738ZM70.0434 94.2036L69.181 90.1075C69.9356 89.7841 70.9057 88.814 71.4446 88.1673C71.6063 88.5984 71.8758 89.5685 72.1453 89.8919L70.0434 94.2036ZM75.8641 115.654H79.9063C79.7446 116.301 79.8524 123.038 79.8524 124.277H75.8641V115.654ZM63.6298 89.8919C63.8453 89.6763 64.2226 88.4906 64.3304 88.1134C64.8155 88.7601 66.0012 89.838 66.6479 90.1075L65.7317 94.2575L63.6298 89.8919ZM65.3544 106.061L67.8875 94.3653L70.4206 106.061L67.8875 109.133L65.3544 106.061ZM58.4019 70.6511C58.2941 70.5972 58.1863 70.4895 58.0246 70.4356C62.7135 64.5609 73.2771 62.4051 75.5946 67.6869C67.5103 66.2856 60.7733 68.4953 58.4019 70.6511ZM61.6356 75.7712C61.42 74.5855 60.9889 73.2381 60.1265 72.1602C65.1927 68.2797 73.4388 69.4654 76.0258 69.9505C75.9719 71.1362 75.7024 72.4297 75.1634 73.7771C74.4628 73.6154 69.6122 75.6634 67.8336 73.9927C66.0012 72.2141 63.3603 74.1005 61.6356 75.7712ZM70.7979 97.599L74.355 90.2692C77.4271 90.4848 79.9063 91.2932 82.2238 93.6646C84.3796 95.7666 85.6731 98.6769 85.6731 101.857V113.498H81.6309V105.198C81.6309 103.743 79.4751 103.743 79.4751 105.198V113.498H56.3538V105.198C56.3538 103.743 54.198 103.743 54.198 105.198V113.498H50.1558V101.857C50.1558 95.6049 55.222 90.4309 61.42 90.2692L64.9772 97.6529L63.1986 106.061C63.0908 106.384 63.1447 106.707 63.3603 106.977L67.0252 111.396C67.4025 111.989 68.2648 112.043 68.7499 111.504L72.3609 107.085C72.6303 106.815 72.7381 106.438 72.6303 106.115L70.7979 97.599ZM83.7329 81.2147C88.5296 75.2323 98.9315 73.2381 101.303 78.466C93.2185 77.0647 86.4277 79.2745 84.1101 81.4303C84.0023 81.3225 83.8946 81.2686 83.7329 81.2147ZM85.8348 82.9394C90.901 79.0589 99.147 80.2446 101.734 80.7296C101.734 81.9153 101.411 83.2088 100.872 84.5562C100.171 84.3946 95.3743 86.4426 93.5419 84.7179C91.7094 82.9933 89.0685 84.8796 87.3439 86.5504C87.1283 85.3647 86.6971 84.0173 85.8348 82.9394ZM92.0867 86.2809C93.9192 88.0595 97.6919 87.4666 99.6321 86.9815C99.686 91.0237 99.686 93.5568 95.6977 95.3354C91.9789 96.6828 87.5595 94.0419 87.5595 89.6224C87.5595 89.0835 91.0627 85.3108 92.0867 86.2809ZM91.7633 97.6529C92.949 97.9224 94.1886 97.9224 95.4282 97.6529C93.5958 99.4854 93.5958 99.4315 91.7633 97.6529ZM92.3023 100.887L91.44 105.037L89.338 100.671C89.6614 100.348 89.877 99.3237 90.0387 98.8925C90.1465 99.0542 92.3023 100.887 92.3023 100.887ZM93.5958 105.144L96.1289 116.84L93.5958 119.912L91.0627 116.84L93.5958 105.144ZM94.8893 100.887C95.5899 100.563 96.6139 99.5931 97.1529 98.9464C97.3685 99.4854 97.4763 100.186 97.8535 100.671L95.7516 104.983L94.8893 100.887Z" fill="url(#paint0_linear_13_129)"/>
<defs>
<linearGradient id="paint0_linear_13_129" x1="88.5268" y1="59.3744" x2="99.4553" y2="129.607" gradientUnits="userSpaceOnUse">
<stop stop-color="#727272"/>
<stop offset="0.302" stop-color="white"/>
<stop offset="1" stop-color="#7D7D7D"/>
</linearGradient>
</defs>
</svg>
