<svg width="188" height="189" viewBox="0 0 188 189" fill="none" xmlns="http://www.w3.org/2000/svg">
<circle cx="94" cy="94.5" r="93" fill="#43BB73" stroke="#2E0E0E" stroke-width="2" stroke-dasharray="4 4"/>
<path d="M94 76.5329C90.4464 76.5329 86.9727 77.5866 84.018 79.5609C81.0633 81.5351 78.7604 84.3412 77.4005 87.6243C76.0407 90.9073 75.6848 94.5199 76.3781 98.0052C77.0714 101.49 78.7826 104.692 81.2953 107.205C83.8081 109.717 87.0095 111.429 90.4948 112.122C93.9801 112.815 97.5927 112.459 100.876 111.099C104.159 109.74 106.965 107.437 108.939 104.482C110.913 101.527 111.967 98.0536 111.967 94.5C111.962 89.7364 110.067 85.1694 106.699 81.801C103.331 78.4327 98.7636 76.5381 94 76.5329ZM97.7914 89.1094H100.17C100.504 89.1094 100.824 89.2419 101.06 89.4778C101.296 89.7137 101.428 90.0336 101.428 90.3672C101.428 90.7008 101.296 91.0207 101.06 91.2566C100.824 91.4925 100.504 91.625 100.17 91.625H97.7914C97.2031 94.6797 94.5445 96.8359 91.362 96.8359H90.9937L97.5199 103.026C97.7627 103.259 97.904 103.579 97.9134 103.916C97.9228 104.252 97.7996 104.579 97.5702 104.826C97.4566 104.946 97.3205 105.042 97.1696 105.11C97.0186 105.177 96.8559 105.214 96.6908 105.218C96.5256 105.222 96.3612 105.194 96.207 105.135C96.0528 105.075 95.9119 104.986 95.7922 104.872L86.9672 96.5271C86.7847 96.3512 86.6584 96.1251 86.6042 95.8775C86.55 95.6299 86.5704 95.3718 86.6627 95.1357C86.755 94.8997 86.9152 94.6962 87.123 94.5511C87.3309 94.406 87.577 94.3257 87.8304 94.3203H91.3613C93.1478 94.3203 94.6657 93.2422 95.1958 91.625H87.8304C87.4968 91.625 87.1769 91.4925 86.941 91.2566C86.7051 91.0207 86.5726 90.7008 86.5726 90.3672C86.5726 90.0336 86.7051 89.7137 86.941 89.4778C87.1769 89.2419 87.4968 89.1094 87.8304 89.1094H95.1958C94.6659 87.4922 93.1474 86.2344 91.3613 86.2344H87.8304C87.4968 86.2344 87.1769 86.1019 86.941 85.866C86.7051 85.6301 86.5726 85.3102 86.5726 84.9766C86.5726 84.643 86.7051 84.323 86.941 84.0872C87.1769 83.8513 87.4968 83.7187 87.8304 83.7187H100.17C100.503 83.7187 100.823 83.8513 101.059 84.0872C101.295 84.323 101.427 84.643 101.427 84.9766C101.427 85.3102 101.295 85.6301 101.059 85.866C100.823 86.1019 100.503 86.2344 100.17 86.2344H96.5165C97.1472 87.0876 97.5824 88.0691 97.7914 89.1094Z" fill="white"/>
<path d="M127.92 84.0781C127.805 83.9036 127.649 83.7603 127.466 83.6612C127.282 83.562 127.077 83.5101 126.868 83.5101C126.659 83.5101 126.454 83.562 126.27 83.6612C126.087 83.7603 125.931 83.9036 125.816 84.0781L116.327 98.5475C116.202 98.731 116.131 98.9455 116.122 99.1669C116.112 99.3883 116.164 99.6081 116.272 99.8019C116.381 99.9975 116.542 100.159 116.738 100.27C116.933 100.38 117.154 100.435 117.378 100.429H125.243C124.123 108.392 120.12 115.667 113.993 120.874C108.172 125.866 100.863 128.745 93.9384 128.745C89.4237 128.745 84.7024 127.535 80.2835 125.231C75.6928 122.836 71.7109 119.422 68.6425 115.25C68.5447 115.117 68.4216 115.004 68.2802 114.919C68.1388 114.833 67.9819 114.776 67.8185 114.751C67.655 114.726 67.4883 114.733 67.3277 114.772C67.1671 114.812 67.0158 114.882 66.8825 114.98C66.7491 115.078 66.6364 115.201 66.5506 115.342C66.4649 115.484 66.4078 115.641 66.3827 115.804C66.3576 115.968 66.3649 116.134 66.4043 116.295C66.4436 116.455 66.5142 116.607 66.612 116.74C69.9085 121.223 74.1867 124.894 79.1193 127.47C83.8954 129.96 89.0201 131.277 93.9375 131.277C101.453 131.277 109.36 128.16 115.63 122.784C122.31 117.095 126.641 109.129 127.785 100.43H136.358C136.582 100.436 136.803 100.381 136.998 100.271C137.193 100.16 137.355 99.9982 137.464 99.8026C137.572 99.6089 137.624 99.3892 137.615 99.1678C137.605 98.9463 137.534 98.7318 137.41 98.5482L127.92 84.0781ZM71.7283 89.1974C71.6186 89.0018 71.4575 88.84 71.2624 88.7294C71.0673 88.6189 70.8457 88.5639 70.6216 88.5703H62.7572C63.8772 80.6076 67.8801 73.3327 74.0069 68.1249C79.8277 63.1338 87.1374 60.2546 94.0616 60.2546C98.5763 60.2546 103.298 61.4639 107.716 63.7679C112.307 66.1635 116.289 69.5776 119.357 73.7488C119.555 74.018 119.851 74.1978 120.182 74.2485C120.512 74.2992 120.848 74.2168 121.118 74.0192C121.387 73.8217 121.567 73.5253 121.617 73.1952C121.668 72.8651 121.585 72.5284 121.388 72.2592C118.091 67.7758 113.813 64.1057 108.881 61.5295C104.105 59.0392 98.9798 57.7226 94.0625 57.7226C86.5467 57.7226 78.6403 60.839 72.3705 66.215C65.69 71.9043 61.3587 79.8704 60.2153 88.5703H51.6424C51.4181 88.5628 51.196 88.6173 51.0007 88.728C50.8054 88.8387 50.6445 89.0011 50.5357 89.1974C50.4269 89.3938 50.3744 89.6164 50.3841 89.8406C50.3938 90.0649 50.4652 90.2821 50.5905 90.4683L60.0802 104.929C60.1954 105.103 60.3519 105.246 60.5358 105.344C60.7197 105.443 60.9251 105.494 61.1337 105.493C61.3423 105.493 61.5474 105.44 61.7307 105.341C61.914 105.241 62.0697 105.098 62.1838 104.923L71.6735 90.4694C71.7977 90.2826 71.8685 90.0653 71.8782 89.8411C71.8879 89.6169 71.836 89.3943 71.7283 89.1974Z" fill="white"/>
</svg>
