<svg width="188" height="189" viewBox="0 0 188 189" fill="none" xmlns="http://www.w3.org/2000/svg">
<circle cx="94" cy="94.5" r="93" fill="#43BB73" stroke="#2E0E0E" stroke-width="2" stroke-dasharray="4 4"/>
<path d="M94 55.6875C72.5813 55.6875 55.1875 73.0813 55.1875 94.5C55.1875 115.919 72.5813 133.312 94 133.312C115.419 133.312 132.812 115.919 132.812 94.5C132.812 73.0813 115.419 55.6875 94 55.6875ZM94 58.5625C99.5056 58.5625 104.695 59.8304 109.358 62.0384C105.992 62.7169 103.131 64.1946 102.447 64.0423C101.397 63.8123 96.3144 64.692 94.4485 65.3906C92.5826 66.0921 92.758 66.9805 92.2923 67.0984C91.8265 67.2134 91.5764 67.6302 90.8548 68.4439C90.1331 69.2604 91.2141 70.2407 91.2141 70.2407C91.2141 70.2407 93.9828 70.8646 94.4485 68.8032C94.7245 67.5814 94.3335 69.8497 94.4485 70.7812C94.5635 71.7156 96.3029 71.9456 97.2344 70.7812C97.6541 70.2551 97.5966 68.97 97.864 68.5359C98.1917 68.0011 98.9162 68.4094 99.3015 68.3548C99.5315 68.326 99.0025 68.7199 99.3015 68.8952C99.8966 69.246 101.121 68.6451 100.828 70.0625C100.71 70.6346 98.9048 70.7468 98.6719 71.5891C98.4361 72.4315 98.0423 72.9375 98.0423 72.9375L94.1811 73.0266L92.9219 71.2298C92.9219 71.2298 91.6971 71.7616 92.022 72.8484C92.2491 73.5959 91.6655 74.4641 91.6655 74.4641C91.6655 74.4641 89.6875 74.7804 89.6875 75.364C89.6875 75.6831 88.8825 75.7234 88.4283 75.9016C88.0574 76.0483 87.8072 76.6578 87.4421 76.7095C87.2236 76.7383 85.858 76.9395 85.5561 76.9798C84.7339 77.0804 85.1048 77.2672 85.1048 77.6094C85.1048 78.0751 86.6314 78.1499 86.6314 78.1499C86.6314 78.1499 87.6089 78.5265 87.2639 79.2251C86.9131 79.9266 87.5111 80.2141 86.8125 80.2141C86.5078 80.2141 85.8063 80.1192 85.1048 80.125C84.1991 80.125 83.3309 79.8404 83.3079 80.2141C83.2216 81.6516 83.2188 83.7188 83.2188 83.7188C83.2188 83.7188 84.4464 84.3225 85.1048 84.1673C86.019 83.9545 87.3588 84.6704 87.9798 83C88.0286 82.8706 88.0602 82.5918 88.1609 82.4595C88.5921 81.8931 89.0608 80.7489 89.7766 80.3952C90.2165 80.1739 90.8289 80.3176 91.0359 80.3061C91.5016 80.2774 92.2923 79.6736 92.2923 79.6736C92.2923 79.6736 94.3565 79.9554 94.897 82.011C95.058 82.6176 94.9056 83.6153 95.2564 83.8079C95.472 83.9258 96.4265 82.9109 96.4265 82.9109L97.5046 83L96.875 81.5625L94.897 79.3171L95.2564 79.1446C95.2564 79.1446 96.7571 79.2424 96.875 79.5903C96.99 79.941 98.7955 80.8265 98.4936 81.8385C97.9876 83.5089 99.2124 83.9028 99.2124 83.9028C99.2124 83.9028 100.273 84.1529 100.736 83.276C101.142 82.5084 101.188 81.8385 101.188 81.8385L102.536 81.5625C102.536 81.5625 102.407 78.7651 103.881 78.6875C105.359 78.6127 105.5 78.6875 105.5 78.6875C105.5 78.6875 108.743 79.7599 109.094 80.5735C109.442 81.39 109.603 82.1663 108.553 82.2812C107.507 82.3991 105.949 82.195 105.949 82.195C105.949 82.195 101.826 81.5711 102.176 82.7355C102.524 83.9027 102.895 85.0729 102.895 85.0729C102.895 85.0729 103.789 84.978 104.6 85.1562C105.468 85.3546 106.578 85.2454 106.578 85.2454L106.759 87.2234L106.219 87.4016C105.632 87.5655 103.899 87.6776 103.433 87.8501C102.967 88.0226 97.8899 87.1371 97.7749 87.3125C97.657 87.485 96.0096 88.083 95.0781 87.853C94.1466 87.6172 93.9109 85.4265 93.9109 85.4265C93.9109 85.4265 93.7412 84.38 93.103 84.4375L88.0717 84.886C88.0717 84.886 86.6342 85.5271 86.6342 85.875C86.6342 85.875 86.226 85.5818 85.6452 85.875C85.0616 86.1682 84.1704 86.128 83.9375 86.5938C83.7046 87.0595 82.7875 87.9335 82.3189 88.75C81.856 89.5636 80.5163 89.6297 80.1626 91.0874C79.8148 92.5421 79.5675 94.9773 79.625 96.0266C79.6825 97.076 79.6537 99.6779 80.7031 100.25C81.7525 100.825 83.144 102.24 83.6673 102.766C84.1905 103.289 87.0023 103.714 87.3501 103.484C87.7009 103.251 88.9572 102.766 89.5984 102.766C90.2395 102.766 91.6166 102.866 92.0249 103.214C92.4302 103.565 92.9305 104.318 93.2812 105.192C93.6291 106.066 93.9799 107.541 94.2702 108.067C94.5606 108.59 95.6675 109.591 95.2564 110.583C94.851 111.575 94.1524 112.561 94.2702 113.725C94.3852 114.89 95.0839 116.436 95.3484 116.96C95.6129 117.483 97.2947 119.13 97.2344 119.656C97.1769 120.179 97.6714 120.05 98.3125 120.286C98.9536 120.516 101.676 119.766 102.087 119.297C102.493 118.831 103.125 117.359 103.884 116.6C104.64 115.844 106.213 114.602 107.027 113.725C107.843 112.851 108.677 112.049 108.734 110.942C108.792 109.832 108.151 107.397 108.734 106.989C109.318 106.581 110.126 105.948 110.712 105.192C111.293 104.433 112.532 104.494 113.406 102.047C114.28 99.6002 114.568 98.8384 114.395 98.7234C114.223 98.6055 112.831 99.1834 112.598 99.5312C112.365 99.882 111.003 99.9683 110.71 100.25C110.422 100.532 109.094 100.25 109.094 100.25C109.094 100.25 109.654 98.042 109.364 97.2859C109.071 96.5297 107.582 93.5714 107.116 92.522C106.733 91.6624 106.667 90.6676 106.848 90.0092C106.923 90.1156 106.969 90.1731 107.027 90.2766C107.234 90.6504 108.352 91.9729 108.824 93.3327C109.83 96.2451 110.98 98.364 110.98 98.364C110.98 98.364 112.498 98.4215 115.025 96.4751C116.741 95.1555 118.578 95.0865 118.886 94.4109C119.47 93.1286 117.089 91.9844 117.089 91.9844H114.933L113.317 89.1985L113.766 89.0202C113.766 89.0202 115.557 91.0874 116.37 91.0874C117.187 91.0874 119.355 90.8976 120.056 91.7141C120.755 92.5306 122.94 93.9106 123.29 95.3079C123.641 96.7051 123.463 98.6601 124.096 99.353C124.993 100.325 125.806 100.25 125.806 100.25L126.884 97.7344L129.4 94.8594L129.932 94.5891C129.883 114.412 113.832 130.438 94 130.438C84.9693 130.441 76.2713 127.029 69.6516 120.887L70.7298 119.297L71.989 114.266L68.9329 112.38L65.4311 111.21L63.0938 105.551C63.0938 105.551 60.9145 103.789 59.1061 102.973C58.423 100.2 58.0727 97.3556 58.0625 94.5C58.0625 92.3811 58.2839 90.314 58.6375 88.2958C60.8455 86.5995 63.8125 85.2482 63.8125 85.2482C63.8125 85.2482 65.4512 85.0585 62.6452 80.3952C62.2884 79.8089 62.0191 79.1735 61.846 78.5092C63.0247 76.1402 64.4306 73.9064 66.0809 71.868C65.9371 72.7219 65.3794 76.2668 66.4173 76.8906C67.5816 77.5893 68.7 75.433 68.9329 74.7344C69.1658 74.0357 71.5951 71.3706 72.5266 69.9734C73.1908 68.9757 72.9579 67.0409 72.2736 65.9081C78.5123 61.1396 86.1476 58.5582 94 58.5625ZM86.9016 65.0312C86.3439 65.0859 85.1939 65.3849 85.1939 66.2905V67.9954C85.1939 67.9954 84.8489 68.6106 84.6562 68.8061C84.4607 68.9988 84.6304 69.8929 84.7454 70.2436C84.8604 70.5944 84.9265 71.6811 84.9265 71.6811C84.9265 71.6811 85.49 71.9744 85.6452 72.1296C85.8005 72.282 87.1287 72.6184 87.7124 72.3079C88.2931 72.0003 88.6324 71.1809 89.0579 71.1406C89.4863 71.1004 89.2246 71.1033 89.147 70.7812C89.0723 70.4707 89.5092 69.3438 89.5092 69.3438L88.3391 68.3548C88.3391 68.3548 87.6319 66.8454 87.7095 66.3796C87.7871 65.911 87.1345 65.0859 87.1719 65.0312C87.1805 65.0025 87.0856 65.0025 86.9016 65.0312ZM83.8513 68.4468C83.6931 68.5158 83.3884 68.8953 83.2216 68.9844C83.0003 69.0965 83.0692 69.4818 82.9514 69.7923C82.8364 70.1028 82.5029 71.2298 82.5029 71.2298L83.2216 71.5C83.2216 71.5 84.363 71.2844 84.4809 71.0515C84.5729 70.8646 84.2365 69.844 84.1186 69.4329C84.0899 69.3351 84.1186 69.2546 84.1186 69.2546L83.9404 68.5359C83.9116 68.4784 83.903 68.4209 83.8513 68.4439V68.4468ZM113.95 78.3281C114.211 78.3281 114.729 78.5121 114.847 78.5984C115.002 78.7134 115.002 80.079 114.847 80.9329C114.789 81.2183 114.829 81.5147 114.959 81.775C115.089 82.0354 115.303 82.2449 115.565 82.3704C115.801 82.448 115.965 84.3196 115.925 84.7077C115.887 85.0959 114.789 85.3862 114.487 85.4265C114.185 85.4667 112.92 85.4553 112.961 84.886C113.001 84.3225 112.742 82.4796 112.509 81.7408C112.279 81.0048 112.34 79.9583 112.69 79.7656C113.041 79.573 113.768 78.4173 113.768 78.4173C113.797 78.354 113.86 78.331 113.95 78.3281ZM112.331 110.134C112.19 110.134 111.986 110.163 111.79 110.221C111.79 110.221 111.71 111.946 110.893 112.469C110.08 112.995 109.545 114.01 109.545 114.536C109.545 115.059 109.373 115.536 109.545 116.062C109.72 116.586 110.12 117.02 110.623 116.962C111.129 116.905 111.675 115.812 111.793 115.344C111.908 114.878 112.342 113.872 112.69 113.547C113.041 113.222 113.11 112.308 113.05 111.839C113.001 111.434 113.308 110.111 112.331 110.134Z" fill="white"/>
</svg>
