<svg width="20" height="19" viewBox="0 0 20 19" fill="none" xmlns="http://www.w3.org/2000/svg">
<path d="M10.0415 8.74864C10.3466 8.74864 10.6449 8.65817 10.8986 8.48868C11.1523 8.31919 11.3501 8.07828 11.4668 7.79643C11.5836 7.51457 11.6141 7.20443 11.5546 6.90521C11.4951 6.606 11.3481 6.33115 11.1324 6.11543C10.9166 5.8997 10.6417 5.7528 10.3424 5.69328C10.0432 5.63376 9.73296 5.66431 9.45105 5.78105C9.16914 5.8978 8.92819 6.09551 8.75866 6.34917C8.58914 6.60283 8.49865 6.90106 8.49865 7.20614C8.49865 7.61524 8.6612 8.00758 8.95053 8.29685C9.23986 8.58613 9.63228 8.74864 10.0415 8.74864ZM9.49376 14.078C9.56547 14.1503 9.65079 14.2076 9.74479 14.2468C9.8388 14.286 9.93962 14.3061 10.0415 14.3061C10.1433 14.3061 10.2441 14.286 10.3381 14.2468C10.4321 14.2076 10.5174 14.1503 10.5892 14.078L13.7442 10.9159C14.477 10.1836 14.9761 9.25048 15.1784 8.23457C15.3808 7.21866 15.2772 6.16557 14.8808 5.20852C14.4845 4.25146 13.8131 3.43342 12.9517 2.85788C12.0903 2.28233 11.0775 1.97513 10.0415 1.97513C9.0054 1.97513 7.99261 2.28233 7.13119 2.85788C6.26978 3.43342 5.59844 4.25146 5.20208 5.20852C4.80572 6.16557 4.70216 7.21866 4.90448 8.23457C5.1068 9.25048 5.60593 10.1836 6.33873 10.9159L9.49376 14.078ZM6.36187 6.85136C6.41457 6.30148 6.58945 5.7703 6.87371 5.29661C7.15798 4.82293 7.54447 4.41869 8.00495 4.11343C8.60989 3.71631 9.31778 3.50472 10.0415 3.50472C10.7651 3.50472 11.473 3.71631 12.078 4.11343C12.5354 4.41765 12.9197 4.81943 13.2032 5.28988C13.4868 5.76033 13.6625 6.28776 13.7179 6.83423C13.7732 7.38071 13.7067 7.93265 13.5232 8.45036C13.3397 8.96808 13.0437 9.4387 12.6565 9.82839L10.0415 12.4429L7.4264 9.82839C7.03879 9.44248 6.74211 8.97502 6.55796 8.46004C6.37381 7.94505 6.30682 7.3955 6.36187 6.85136ZM15.4413 15.8441H4.64164C4.43705 15.8441 4.24084 15.9254 4.09618 16.07C3.95151 16.2147 3.87024 16.4108 3.87024 16.6154C3.87024 16.8199 3.95151 17.0161 4.09618 17.1607C4.24084 17.3054 4.43705 17.3866 4.64164 17.3866H15.4413C15.6459 17.3866 15.8421 17.3054 15.9867 17.1607C16.1314 17.0161 16.2127 16.8199 16.2127 16.6154C16.2127 16.4108 16.1314 16.2147 15.9867 16.07C15.8421 15.9254 15.6459 15.8441 15.4413 15.8441Z" fill="white"/>
</svg>
