<svg width="46" height="46" viewBox="0 0 46 46" fill="none" xmlns="http://www.w3.org/2000/svg">
<path d="M33.9442 36.7425L27.4275 30.245C29.5301 27.5663 30.6709 24.2586 30.6667 20.8533C30.6667 17.8207 29.7674 14.8561 28.0825 12.3346C26.3977 9.813 24.003 7.84769 21.2012 6.68715C18.3994 5.5266 15.3163 5.22295 12.342 5.81459C9.36758 6.40623 6.63544 7.86659 4.49104 10.011C2.34663 12.1554 0.886273 14.8875 0.294633 17.8619C-0.297007 20.8363 0.00664364 23.9193 1.16719 26.7211C2.32773 29.5229 4.29304 31.9176 6.8146 33.6025C9.33615 35.2873 12.3007 36.1866 15.3333 36.1866C18.7386 36.1909 22.0464 35.05 24.725 32.9475L31.2225 39.4641C31.4007 39.6438 31.6127 39.7864 31.8462 39.8837C32.0798 39.981 32.3303 40.0311 32.5833 40.0311C32.8364 40.0311 33.0869 39.981 33.3204 39.8837C33.554 39.7864 33.766 39.6438 33.9442 39.4641C34.1238 39.286 34.2664 39.074 34.3637 38.8404C34.461 38.6068 34.5111 38.3563 34.5111 38.1033C34.5111 37.8503 34.461 37.5998 34.3637 37.3662C34.2664 37.1326 34.1238 36.9206 33.9442 36.7425ZM3.83334 20.8533C3.83334 18.5788 4.5078 16.3554 5.77144 14.4642C7.03508 12.5731 8.83113 11.0991 10.9325 10.2287C13.0338 9.35828 15.3461 9.13054 17.5769 9.57427C19.8077 10.018 21.8568 11.1133 23.4651 12.7216C25.0734 14.3299 26.1686 16.379 26.6124 18.6098C27.0561 20.8405 26.8284 23.1528 25.958 25.2542C25.0875 27.3555 23.6136 29.1516 21.7224 30.4152C19.8312 31.6788 17.6078 32.3533 15.3333 32.3533C12.2834 32.3533 9.35828 31.1417 7.20161 28.985C5.04494 26.8284 3.83334 23.9033 3.83334 20.8533Z" fill="white"/>
</svg>
