<svg width="20" height="20" viewBox="0 0 20 20" fill="none" xmlns="http://www.w3.org/2000/svg">
<g clip-path="url(#clip0_5_32)">
<path d="M19.9461 10.0876C19.9461 4.74785 15.6173 0.419128 10.2776 0.419128C4.93785 0.419128 0.609131 4.74785 0.609131 10.0876C0.609131 15.4273 4.93785 19.7561 10.2776 19.7561C15.6173 19.7561 19.9461 15.4273 19.9461 10.0876Z" fill="#8D8D8D"/>
<path d="M19.9461 10.0876C19.9461 4.74785 15.6173 0.419128 10.2776 0.419128C4.93785 0.419128 0.609131 4.74785 0.609131 10.0876C0.609131 15.4273 4.93785 19.7561 10.2776 19.7561C15.6173 19.7561 19.9461 15.4273 19.9461 10.0876Z" fill="url(#paint0_linear_5_32)"/>
<path d="M4.95486 9.87444C7.76649 8.62375 9.64133 7.79919 10.5794 7.40077C13.2579 6.26331 13.8144 6.06571 14.1772 6.05915C14.257 6.05778 14.4354 6.07796 14.5509 6.17368C14.6485 6.25453 14.6753 6.36374 14.6882 6.44037C14.701 6.51703 14.717 6.69162 14.7043 6.82803C14.5592 8.38514 13.9311 12.1639 13.6116 13.9078C13.4764 14.6458 13.2102 14.8932 12.9525 14.9174C12.3924 14.97 11.9671 14.5395 11.4246 14.1764C10.5757 13.6083 10.0962 13.2546 9.27223 12.7003C8.32001 12.0596 8.9373 11.7074 9.47998 11.1319C9.62199 10.9813 12.0897 8.68949 12.1375 8.48162C12.1435 8.4556 12.149 8.35867 12.0926 8.30751C12.0362 8.25634 11.953 8.27383 11.893 8.28773C11.8078 8.30747 10.4517 9.22263 7.82474 11.0332C7.43982 11.3031 7.09119 11.4345 6.77882 11.4276C6.43446 11.4201 5.77205 11.2289 5.2796 11.0654C4.6756 10.8649 4.19554 10.759 4.23734 10.4185C4.25911 10.2412 4.49828 10.0598 4.95486 9.87444Z" fill="white"/>
</g>
<defs>
<linearGradient id="paint0_linear_5_32" x1="10.2776" y1="0.419128" x2="10.2776" y2="19.6126" gradientUnits="userSpaceOnUse">
<stop stop-color="#8C8C8C"/>
<stop offset="1" stop-color="#7D7D7D"/>
</linearGradient>
<clipPath id="clip0_5_32">
<rect width="19.3369" height="19.3369" fill="white" transform="translate(0.609131 0.419128)"/>
</clipPath>
</defs>
</svg>
