<svg width="100" height="86" viewBox="0 0 100 86" fill="none" xmlns="http://www.w3.org/2000/svg">
<g clip-path="url(#clip0_10_118)">
<path d="M55.875 2.73873e-06C53.5 0.213858 51.25 1.60392 50 3.63554C48.375 6.41567 36.375 27.0527 34 29.0843C31.625 31.116 28.5 32.0783 25 32.0783V74.8494H68.75C71.375 74.8494 73.625 73.4593 74.625 71.5346C74.625 71.5346 87.5 40.4187 87.5 37.4247C87.5 34.4307 84.75 32.0783 81.25 32.0783H62.5C59 32.0783 56.25 29.4051 56.25 26.7319C56.25 24.0587 61.125 9.83735 62.125 7.05723C62.63 5.72379 62.5079 4.27449 61.7844 3.01682C61.061 1.75915 59.7932 0.79208 58.25 0.320786C57.375 0.10693 56.75 -0.106925 55.875 2.73873e-06ZM0 32.0783V74.8494H12.5V32.0783H0Z" fill="white"/>
</g>
<defs>
<clipPath id="clip0_10_118">
<rect width="100" height="85.5422" fill="white"/>
</clipPath>
</defs>
</svg>
