<svg width="80" height="79" viewBox="0 0 80 79" fill="none" xmlns="http://www.w3.org/2000/svg">
<path d="M77.868 46.2781C78.5547 46.0576 79.02 45.4187 79.02 44.6972V34.336C79.02 33.6145 78.5539 32.9756 77.8672 32.7551L68.0938 29.6208C67.6609 28.4177 67.2174 27.3459 66.7521 26.3763L71.4494 17.2118C71.7778 16.5713 71.6553 15.7914 71.147 15.2823L63.8245 7.94353C63.3154 7.43115 62.5363 7.31116 61.895 7.63708L52.7288 12.3117C51.6984 11.7977 50.5991 11.3389 49.4438 10.94L46.3152 1.15448C46.0946 0.466981 45.4558 0 44.7334 0H34.3731C33.6532 0 33.0151 0.463738 32.793 1.14962L29.6303 10.9303C28.6396 11.274 27.4997 11.7134 26.3436 12.2907L17.2335 7.60465C16.5897 7.27549 15.8082 7.39872 15.2982 7.90948L7.95951 15.2661C7.45199 15.7752 7.32957 16.5519 7.6563 17.1923L12.301 26.2985C11.7789 27.3605 11.3265 28.4599 10.9495 29.5819L1.2037 32.7227C0.519439 32.9432 0.0548905 33.5788 0.0524583 34.2988L0.0200291 44.6599C0.0175969 45.3814 0.481334 46.0203 1.16721 46.2441L10.9519 49.4221C11.3249 50.4728 11.7683 51.5316 12.3099 52.6667L7.64008 61.8068C7.31336 62.4473 7.43497 63.224 7.94249 63.7331L15.248 71.0719C15.7563 71.5826 16.5362 71.7123 17.1775 71.3799L26.3388 66.715C27.4178 67.2436 28.4896 67.6927 29.5833 68.0738L32.7614 77.8382C32.9835 78.5225 33.6207 78.9846 34.3399 78.9846H44.7002C45.4193 78.9846 46.0565 78.5225 46.2787 77.8382L49.46 68.0673C50.608 67.6603 51.6773 67.2193 52.6948 66.7312L61.8447 71.3978C62.4884 71.7237 63.2627 71.6005 63.7726 71.0946L71.0943 63.7883C71.6027 63.2807 71.7275 62.5024 71.4016 61.862L66.7407 52.6764C67.2288 51.6922 67.6747 50.6171 68.0906 49.4237L77.868 46.2781ZM63.3932 53.4174L67.8952 62.2884L62.2801 67.8922L53.4585 63.3926C52.9802 63.1462 52.4167 63.1494 51.9416 63.3959C50.6258 64.0769 49.2111 64.6622 47.618 65.186C47.1162 65.3513 46.7221 65.747 46.5592 66.2496L43.4946 75.6638H35.5454L32.4809 66.2496C32.3155 65.7405 31.9133 65.3416 31.4026 65.1811C29.9473 64.7206 28.5415 64.132 27.1049 63.3813C26.6298 63.1348 26.0623 63.1299 25.5832 63.3748L16.7478 67.8727L11.1457 62.2446L15.6444 53.4385C15.8844 52.9682 15.8868 52.4121 15.6509 51.9402C14.8621 50.3626 14.2856 48.9811 13.8365 47.5899C13.6727 47.084 13.2763 46.6867 12.7696 46.5213L3.34483 43.46L3.36916 35.5148L12.7825 32.4811C13.303 32.3125 13.7076 31.899 13.8641 31.3753C14.3083 29.89 14.9018 28.4469 15.6306 27.0816C15.886 26.6033 15.8917 26.0293 15.6444 25.5461L11.1619 16.7578L16.7924 11.1135L25.5937 15.6406C26.0891 15.8919 26.6768 15.8838 27.1617 15.6147C28.351 14.9515 29.6384 14.4132 31.4683 13.8148C31.9733 13.6511 32.369 13.2538 32.5327 12.7479L35.5811 3.32075H43.5214L46.5389 12.7593C46.7043 13.2749 47.1097 13.677 47.6253 13.8375C49.1827 14.324 50.6291 14.9304 51.9238 15.6374C52.4054 15.8984 52.9859 15.9081 53.4739 15.6584L62.3271 11.1443L67.943 16.7724L63.4127 25.6093C63.167 26.0893 63.1694 26.6584 63.4191 27.1351C64.0531 28.3496 64.645 29.7716 65.2279 31.4839C65.3973 31.9817 65.7921 32.3692 66.2924 32.5297L75.6993 35.5473V43.4876L66.2753 46.5197C65.7662 46.6835 65.3681 47.0823 65.2036 47.5899C64.666 49.2551 64.0815 50.656 63.4167 51.8689C63.154 52.3505 63.1451 52.9293 63.3932 53.4174Z" fill="black"/>
<path d="M41.6024 23.8257C32.9673 22.6745 24.9994 28.7696 23.8474 37.4071C23.2888 41.5986 24.3906 45.7576 26.9509 49.1157C29.5144 52.4769 33.2332 54.6367 37.4239 55.1945C38.13 55.2886 38.8313 55.334 39.5253 55.334C47.3375 55.334 54.1565 49.5356 55.2154 41.5856C56.3666 32.9481 50.2602 24.9802 41.6024 23.8257ZM51.9238 41.1478C51.0133 47.9887 44.7188 52.8158 37.8617 51.9029C34.5531 51.4619 31.6158 49.7578 29.5922 47.1018C27.5686 44.4475 26.6971 41.1608 27.139 37.8449C27.974 31.5779 33.3491 27.007 39.5075 27.007C40.0547 27.007 40.6076 27.0427 41.1638 27.1173C48.0063 28.0302 52.8326 34.3231 51.9238 41.1478Z" fill="black"/>
</svg>
