<svg width="82" height="81" viewBox="0 0 82 81" fill="none" xmlns="http://www.w3.org/2000/svg">
<path d="M74.6319 43.1726C73.971 42.4337 73.6065 41.4836 73.6065 40.5C73.6065 39.5164 73.971 38.5663 74.6319 37.8274L79.9085 31.9962C80.49 31.3591 80.851 30.5574 80.9399 29.7062C81.0288 28.855 80.8409 27.9981 80.4032 27.2583L72.1585 13.2472C71.7252 12.5083 71.0655 11.9225 70.2735 11.5735C69.4815 11.2245 68.5975 11.13 67.7475 11.3035L59.9975 12.8423C59.0113 13.0424 57.9847 12.8811 57.1113 12.3887C56.238 11.8964 55.5783 11.107 55.2567 10.1696L52.7421 2.75913C52.4655 1.95483 51.9386 1.25624 51.2359 0.762114C50.5331 0.267988 49.69 0.00331567 48.8258 0.00550708H32.3363C31.4374 -0.0405839 30.5478 0.203632 29.8034 0.700854C29.059 1.19808 28.5008 1.92097 28.2139 2.75913L25.9054 10.1696C25.5839 11.107 24.9242 11.8964 24.0508 12.3887C23.1774 12.8811 22.1508 13.0424 21.1647 12.8423L13.2085 11.3035C12.4028 11.1916 11.5814 11.3165 10.8478 11.6624C10.1142 12.0083 9.50124 12.5597 9.08611 13.2472L0.841359 27.2583C0.39268 27.9898 0.190939 28.842 0.264979 29.6929C0.339019 30.5439 0.685048 31.35 1.2536 31.9962L6.48901 37.8274C7.14991 38.5663 7.51439 39.5164 7.51439 40.5C7.51439 41.4836 7.14991 42.4337 6.48901 43.1726L1.2536 49.0038C0.685048 49.65 0.339019 50.4561 0.264979 51.3071C0.190939 52.158 0.39268 53.0102 0.841359 53.7417L9.08611 67.7528C9.51936 68.4917 10.179 69.0775 10.9711 69.4265C11.7631 69.7755 12.6471 69.87 13.4971 69.6965L21.2471 68.1577C22.2333 67.9576 23.2599 68.1189 24.1332 68.6113C25.0066 69.1036 25.6663 69.893 25.9879 70.8304L28.5025 78.2409C28.7893 79.079 29.3476 79.8019 30.0919 80.2991C30.8363 80.7964 31.7259 81.0406 32.6249 80.9945H49.1144C49.9786 80.9967 50.8217 80.732 51.5244 80.2379C52.2272 79.7438 52.7541 79.0452 53.0306 78.2409L55.5453 70.8304C55.8668 69.893 56.5265 69.1036 57.3999 68.6113C58.2733 68.1189 59.2999 67.9576 60.286 68.1577L68.0361 69.6965C68.886 69.87 69.77 69.7755 70.5621 69.4265C71.3541 69.0775 72.0138 68.4917 72.447 67.7528L80.6918 53.7417C81.1295 53.0019 81.3174 52.145 81.2285 51.2938C81.1396 50.4426 80.7786 49.6409 80.1971 49.0038L74.6319 43.1726ZM68.4896 48.5989L71.7875 52.2434L66.5108 61.2332L61.6464 60.2613C58.6774 59.6651 55.5889 60.1606 52.9671 61.6535C50.3454 63.1465 48.373 65.533 47.4242 68.3602L45.8577 72.8956H35.3044L33.8204 68.2792C32.8716 65.4521 30.8992 63.0655 28.2774 61.5725C25.6557 60.0796 22.5672 59.5842 19.5982 60.1803L14.7338 61.1522L9.37468 52.2029L12.6726 48.5584C14.7006 46.3311 15.8218 43.4477 15.8218 40.4595C15.8218 37.4713 14.7006 34.5879 12.6726 32.3606L9.37468 28.7161L14.6513 19.8073L19.5157 20.7792C22.4847 21.3754 25.5733 20.8799 28.195 19.387C30.8167 17.894 32.7892 15.5074 33.7379 12.6803L35.3044 8.10441H45.8577L47.4242 12.7208C48.373 15.5479 50.3454 17.9345 52.9671 19.4275C55.5889 20.9204 58.6774 21.4158 61.6464 20.8197L66.5108 19.8478L71.7875 28.8376L68.4896 32.4821C66.4843 34.7043 65.377 37.571 65.377 40.5405C65.377 43.51 66.4843 46.3767 68.4896 48.5989ZM40.5811 24.3022C37.3198 24.3022 34.1317 25.2522 31.42 27.032C28.7083 28.8119 26.5948 31.3416 25.3467 34.3014C24.0987 37.2611 23.7721 40.518 24.4084 43.66C25.0447 46.8021 26.6151 49.6883 28.9212 51.9536C31.2273 54.2189 34.1655 55.7616 37.3641 56.3866C40.5628 57.0116 43.8783 56.6908 46.8913 55.4648C49.9044 54.2388 52.4797 52.1627 54.2916 49.499C56.1035 46.8353 57.0706 43.7036 57.0706 40.5C57.0706 36.2041 55.3333 32.0841 52.2409 29.0464C49.1485 26.0088 44.9544 24.3022 40.5811 24.3022ZM40.5811 48.5989C38.9504 48.5989 37.3564 48.1239 36.0005 47.234C34.6447 46.3441 33.5879 45.0792 32.9639 43.5993C32.3399 42.1194 32.1766 40.491 32.4947 38.92C32.8129 37.349 33.5981 35.9059 34.7511 34.7732C35.9042 33.6406 37.3733 32.8692 38.9726 32.5567C40.5719 32.2442 42.2297 32.4046 43.7362 33.0176C45.2427 33.6306 46.5304 34.6686 47.4363 36.0005C48.3423 37.3324 48.8258 38.8982 48.8258 40.5C48.8258 42.648 47.9572 44.7079 46.411 46.2268C44.8648 47.7456 42.7677 48.5989 40.5811 48.5989Z" fill="black"/>
</svg>
